Simulation
nRows=23
nColumns=15
endheader
time  TH_x TH_y TH_z SC_y  SC_z  SC_x  AC_y  AC_z  AC_x  GH_y  GH_z  GH_yy  EL_x  PS_y
0.0  0.000000  0.000000  0.000000  -25.05491388707012  1.2158544781314655  -1.7292346892565948  53.32788185903465  10.492508419757634  7.589675530370484  -137.21087979670747  9.376615056826383  -168.02465987592882  22.148988559834855  120.000000
0.04071428571428568  0.000000  0.000000  0.000000  -23.858151264328626  1.897913298676254  -1.9217914230830022  52.626720532524715  10.909498112343956  7.737914158548333  -137.0073210575744  6.845291739126467  -169.63137059354065  21.152401903447508  120.000000
0.08142857142857136  0.000000  0.000000  0.000000  -22.895852446745845  2.374275827173851  -2.1249129485466076  51.94107951498331  11.250756399820064  7.981790602595079  -138.7565510552922  4.209539451407231  -169.2658669030185  20.222559047194203  120.000000
0.12214285714285705  0.000000  0.000000  0.000000  -22.23557277832772  2.719386429674957  -2.3547575486589625  51.367865158866714  11.592945280203066  8.263882007336072  -155.66952837833142  1.485757830365396  -153.74623604089206  19.392311088340886  120.000000
0.16285714285714273  0.000000  0.000000  0.000000  -21.889098565671656  2.9967411040798564  -2.6248522822435  50.95556164595453  12.005402685276586  8.56195599601212  76.9599675551054  1.8685154042888525  -27.838990760047547  18.686108440544537  120.000000
0.2035714285714284  0.000000  0.000000  0.000000  -21.818539140718656  3.2530510394708894  -2.9240808373850125  50.693283668679044  12.535529795706756  8.896852382276888  63.997361646519735  4.938121856730049  -16.46062704556421  18.12500772809473  120.000000
0.2442857142857141  0.000000  0.000000  0.000000  -21.966347564061564  3.5039862623399762  -3.2347279361227255  50.54901814397083  13.203129936494353  9.287590124752084  61.37875962926477  8.15515682199741  -15.613895650378455  17.727668124799898  120.000000
0.28499999999999975  0.000000  0.000000  0.000000  -22.26818945817936  3.738750024354  -3.533733807133042  50.51680890063466  14.011442834831877  9.740191764780047  60.11273262852721  11.437808900564603  -16.351399046481784  17.508137487905138  120.000000
0.32571428571428546  0.000000  0.000000  0.000000  -22.670462403384963  3.9373632195741117  -3.7940100112249078  50.59487359294787  14.948567110234702  10.252111819370946  59.03689597133891  14.765707518467934  -17.520597619050974  17.47009458823285  120.000000
0.36642857142857116  0.000000  0.000000  0.000000  -23.139627101415808  4.090718142382816  -3.992087666353379  50.79487392569904  15.996100648533874  10.801409660133945  57.887422700385315  18.13418695031437  -18.826221026645133  17.590521558720457  120.000000
0.4071428571428568  0.000000  0.000000  0.000000  -23.653257648145615  4.207334708667975  -4.10712307425868  51.11849598795452  17.129370251044513  11.359611373423066  56.63033533521987  21.527439753268222  -20.17141737543183  17.824324321116766  120.000000
0.4478571428571425  0.000000  0.000000  0.000000  -24.198764627410586  4.301879981847169  -4.120976572010533  51.543501539420596  18.313272478169974  11.905600670003132  55.29284611877446  24.910361643201444  -21.509611750836974  18.118581477004334  120.000000
0.4885714285714282  0.000000  0.000000  0.000000  -24.768711120072847  4.389177082310928  -4.01860266209114  52.038984174933844  19.510004452784383  12.421062378125118  53.91450400895556  28.235280598453258  -22.815892679891697  18.435318440000742  120.000000
0.5292857142857139  0.000000  0.000000  0.000000  -25.355368700863757  4.483095621069417  -3.789245899347891  52.5687848921208  20.67774154396742  12.894449386858208  52.518841305420345  31.447588206743948  -24.06905003367491  18.768467982044857  120.000000
0.5699999999999995  0.000000  0.000000  0.000000  -25.94982422220353  4.595214525591969  -3.4253239459032927  53.10060753691299  21.776682609116197  13.318974863142241  51.11915523807222  34.49293840379196  -25.261408121288518  19.13590391922843  120.000000
0.6107142857142852  0.000000  0.000000  0.000000  -26.539931101378098  4.736315610339163  -2.92090899009572  53.60786374156204  22.772144176111002  13.693450458046255  49.723824628596226  37.323744110364785  -26.393707535670114  19.560114536078185  120.000000
0.6514285714285709  0.000000  0.000000  0.000000  -27.110626893119573  4.916719807431243  -2.268737577849288  54.06993006858716  23.638560483927478  14.021318503315063  48.346352923225815  39.903194921655704  -27.478383516270192  20.046334602003455  120.000000
0.6921428571428566  0.000000  0.000000  0.000000  -27.646843479009377  5.145710331816889  -1.4582402734156852  54.47123370195645  24.36094215560941  14.309072202978184  47.00500392902272  42.20656893543607  -28.53146960125452  20.575577036862295  120.000000
0.7328571428571423  0.000000  0.000000  0.000000  -28.136044719084577  5.427853545803146  -0.47582499167929626  54.80025535585605  24.93588664206737  14.563396024670643  45.716987565291156  44.21850465639434  -29.567179902422197  21.11567739612475  120.000000
0.7735714285714279  0.000000  0.000000  0.000000  -28.569430062865973  5.755951989496204  0.6914066703731343  55.04894857840363  25.371086143065327  14.789793639743824  44.49110292013512  45.928879800045046  -30.58990109807146  21.64031288131602  120.000000
0.8142857142857136  0.000000  0.000000  0.000000  -28.941682755253474  6.108254496606328  2.0484169235673395  55.21271493423602  25.682813066068913  14.99252812044769  43.32523966729621  47.330648093707  -31.591301533119008  22.143917512518644  120.000000
0.8549999999999993  0.000000  0.000000  0.000000  -29.249667372195546  6.450281862547653  3.5846107826523568  55.28827734510604  25.891884660062573  15.178362575411686  42.21050725234917  48.41948943477645  -32.54752882787064  22.64114384670224  120.000000
0.895714285714285  0.000000  0.000000  0.000000  -29.490823835548078  6.740596572293706  5.267167383243766  55.27193779839287  26.019259628046836  15.359397884324544  41.138980246337425  49.19868419180538  -33.42075764795598  23.15139933336166  120.000000
